<?xml version="1.0" encoding="UTF-8"?>
<svg width="5px" height="20px" viewBox="0 0 5 20" version="1.1" xmlns="http://www.w3.org/2000/svg" xmlns:xlink="http://www.w3.org/1999/xlink">
    <!-- Generator: Sketch 46.2 (44496) - http://www.bohemiancoding.com/sketch -->
    <title>icon/elipse</title>
    <desc>Created with Sketch.</desc>
    <defs></defs>
    <g id="UI-Kit" stroke="none" stroke-width="1" fill="none" fill-rule="evenodd">
        <g id="UI-Kit---3" transform="translate(-153.000000, -262.000000)" fill="#FFFFFF">
            <g id="icon/elipse" transform="translate(145.000000, 262.000000)">
                <path d="M8,17.7777778 C8,19 9,20 10.2222222,20 C11.4444444,20 12.4444444,19 12.4444444,17.7777778 C12.4444444,16.5555556 11.4444444,15.5555556 10.2222222,15.5555556 C9,15.5555556 8,16.5555556 8,17.7777778 Z M8,10 C8,11.2222222 9,12.2222222 10.2222222,12.2222222 C11.4444444,12.2222222 12.4444444,11.2222222 12.4444444,10 C12.4444444,8.77777778 11.4444444,7.77777778 10.2222222,7.77777778 C9,7.77777778 8,8.77777778 8,10 Z M10.2222222,4.44444444 C11.4444444,4.44444444 12.4444444,3.44444444 12.4444444,2.22222222 C12.4444444,1 11.4444444,0 10.2222222,0 C9,0 8,1 8,2.22222222 C8,3.44444444 9,4.44444444 10.2222222,4.44444444" id="More-Button"></path>
            </g>
        </g>
    </g>
</svg>