<?xml version="1.0" encoding="UTF-8"?>
<svg width="20px" height="20px" viewBox="0 0 20 20" version="1.1" xmlns="http://www.w3.org/2000/svg" xmlns:xlink="http://www.w3.org/1999/xlink">
    <!-- Generator: Sketch 49 (51002) - http://www.bohemiancoding.com/sketch -->
    <title>icon/export</title>
    <desc>Created with Sketch.</desc>
    <defs></defs>
    <g id="UI-Kit" stroke="none" stroke-width="1" fill="none" fill-rule="evenodd">
        <g id="UI-Kit---3" transform="translate(-345.000000, -343.000000)" fill="#FFFFFF">
            <g id="icon/export" transform="translate(345.000000, 343.000000)">
                <g id="export">
                    <path d="M13.8940937,1.39714868 L17.5804481,1.39714868 L9.15274949,9.82892057 C8.87983707,10.101833 8.87983707,10.5458248 9.15274949,10.8187373 C9.28716904,10.9531568 9.46639511,11.0224033 9.64562118,11.0224033 C9.82484725,11.0224033 10.0040733,10.9531568 10.1384929,10.8187373 L18.5702648,2.38696538 L18.5702648,6.07331976 C18.5702648,6.46028513 18.8839104,6.77393075 19.2668024,6.77393075 C19.6537678,6.77393075 19.9674134,6.46028513 19.9674134,6.07331976 L19.9674134,0.700610998 C19.9674134,0.313645621 19.6537678,0 19.2668024,0 L13.8940937,0 C13.5071283,0 13.1934827,0.313645621 13.1934827,0.700610998 C13.197556,1.08350305 13.5071283,1.39714868 13.8940937,1.39714868 Z" id="Shape" fill-rule="nonzero"></path>
                    <path d="M4.19144603,19.9674134 L15.7718941,19.9674134 C18.0855397,19.9674134 19.9633401,18.0855397 19.9633401,15.7759674 L19.9633401,10.3217923 C19.9633401,9.93482688 19.6496945,9.62525458 19.2627291,9.62525458 C18.8757637,9.62525458 18.5661914,9.9389002 18.5661914,10.3217923 L18.5661914,15.7718941 C18.5661914,17.311609 17.311609,18.5661914 15.7718941,18.5661914 L4.19144603,18.5661914 C2.65173116,18.5661914 1.39714868,17.311609 1.39714868,15.7718941 L1.39714868,6.57433809 L1.39714868,4.19551935 C1.39714868,2.65580448 2.65173116,1.401222 4.19144603,1.401222 L9.59674134,1.401222 C9.98370672,1.401222 10.293279,1.08757637 10.293279,0.700610998 C10.293279,0.313645621 9.9796334,0 9.59674134,0 L4.19144603,0 C1.87780041,0 0,1.88187373 0,4.19144603 L0,6.57026477 L0,15.7718941 C0,18.0855397 1.88187373,19.9674134 4.19144603,19.9674134 Z" id="Shape" fill-rule="nonzero"></path>
                </g>
            </g>
        </g>
    </g>
</svg>