<?xml version="1.0" encoding="UTF-8"?>
<svg width="20px" height="20px" viewBox="0 0 20 20" version="1.1" xmlns="http://www.w3.org/2000/svg" xmlns:xlink="http://www.w3.org/1999/xlink">
    <!-- Generator: Sketch 46.2 (44496) - http://www.bohemiancoding.com/sketch -->
    <title>icon/filter-funnel</title>
    <desc>Created with Sketch.</desc>
    <defs></defs>
    <g id="UI-Kit" stroke="none" stroke-width="1" fill="none" fill-rule="evenodd">
        <g id="UI-Kit---3" transform="translate(-185.000000, -342.000000)" fill-rule="nonzero" fill="#FFFFFF">
            <g id="icon/filter-funnel" transform="translate(185.000000, 342.000000)">
                <path d="M19.9421289,0.377123567 C19.8420726,0.146868629 19.6284627,0 19.3938394,0 L0.606192479,0 C0.371569151,0 0.158040101,0.146868629 0.0579028966,0.377123567 C-0.0421534866,0.607378505 -0.0107949432,0.879545803 0.138481422,1.07595519 L7.36072573,10.5793639 L7.36072573,19.3423793 C7.36072573,19.569916 7.46910668,19.7812315 7.64723613,19.9011815 C7.74486789,19.9668559 7.85567346,20 7.96688314,20 C8.0587766,20 8.15099335,19.9772902 8.23601703,19.9316074 L12.2938772,17.7496219 C12.5000515,17.6387909 12.6304966,17.4109034 12.6308199,17.1612705 L12.6387404,10.5796269 L19.8613888,1.07586751 C20.010746,0.879545803 20.0421853,0.607290822 19.9421289,0.377123567 Z M11.565276,9.92481203 C11.4759688,10.0423069 11.4269913,10.189877 11.4268296,10.3422697 L11.4190708,16.7521427 L8.57312137,18.28247 L8.57312137,10.3431465 C8.57312137,10.1904908 8.52422467,10.04257 8.43467502,9.92481203 L1.89156947,1.31515377 L18.1083815,1.31515377 L11.565276,9.92481203 Z" id="Shape"></path>
            </g>
        </g>
    </g>
</svg>