<?xml version="1.0" encoding="UTF-8"?>
<svg width="20px" height="20px" viewBox="0 0 20 20" version="1.1" xmlns="http://www.w3.org/2000/svg" xmlns:xlink="http://www.w3.org/1999/xlink">
    <!-- Generator: Sketch 46.2 (44496) - http://www.bohemiancoding.com/sketch -->
    <title>icon/search</title>
    <desc>Created with Sketch.</desc>
    <defs></defs>
    <g id="UI-Kit" stroke="none" stroke-width="1" fill="none" fill-rule="evenodd">
        <g id="UI-Kit---3" transform="translate(-265.000000, -262.000000)" fill="#FFFFFF">
            <g id="icon/search" transform="translate(265.000000, 262.000000)">
                <path d="M19.8335556,18.2158048 L14.6587556,13.0027194 C14.464472,12.807293 14.4450436,12.5061535 14.5953277,12.2752989 C16.7170186,9.02104904 16.2221669,4.54566983 13.0919157,1.87255645 C10.0799489,-0.698843758 5.49542805,-0.610844728 2.57717452,2.06798287 C-0.772502825,5.1428061 -0.857073321,10.3764627 2.32460587,13.5604275 C5.03771881,16.2758262 9.23710107,16.6055368 12.3210671,14.5655593 C12.5524931,14.4124182 12.8559183,14.4324179 13.0513447,14.6289872 L18.2147163,19.8312155 C18.4381424,20.0557845 18.8004242,20.0563559 19.0244217,19.8323584 L19.8324128,19.0237959 C20.0552675,18.8009412 20.0558389,18.4398023 19.8335556,18.2158048 L19.8335556,18.2158048 Z M3.94058805,11.9427311 C1.7326124,9.73304119 1.7326124,6.13765227 3.94058805,3.92796236 C6.1485637,1.71827244 9.74109551,1.71770102 11.9490712,3.92796236 C14.1570468,6.13765227 14.1570468,9.73304119 11.9490712,11.9427311 C9.74109551,14.152421 6.1485637,14.152421 3.94058805,11.9427311 L3.94058805,11.9427311 Z" id="Icon"></path>
            </g>
        </g>
    </g>
</svg>