<?xml version="1.0" encoding="UTF-8"?>
<svg width="20px" height="20px" viewBox="0 0 20 20" version="1.1" xmlns="http://www.w3.org/2000/svg" xmlns:xlink="http://www.w3.org/1999/xlink">
    <!-- Generator: Sketch 46.2 (44496) - http://www.bohemiancoding.com/sketch -->
    <title>icon/settings</title>
    <desc>Created with Sketch.</desc>
    <defs></defs>
    <g id="UI-Kit" stroke="none" stroke-width="1" fill="none" fill-rule="evenodd">
        <g id="UI-Kit---3" transform="translate(-145.000000, -302.000000)" fill="#FFFFFF">
            <g id="icon/settings" transform="translate(145.000000, 302.000000)">
                <path d="M10,13.8461538 C7.87912088,13.8461538 6.15384615,12.1208791 6.15384615,10 C6.15384615,7.87912088 7.87912088,6.15384615 10,6.15384615 C12.1208791,6.15384615 13.8461538,7.87912088 13.8461538,10 C13.8461538,12.1208791 12.1208791,13.8461538 10,13.8461538 L10,13.8461538 Z M17.6407061,10.98 C17.6818283,10.66 17.7126699,10.34 17.7126699,10 C17.7126699,9.66 17.6818283,9.34 17.6407061,9.02 L19.8098984,7.37 C20.0052286,7.22 20.0566312,6.95 19.9332648,6.73 L17.8771584,3.27 C17.753792,3.05 17.4762176,2.97 17.2500459,3.05 L14.6901934,4.05 C14.1556057,3.65 13.5798959,3.32 12.9527835,3.07 L12.5621232,0.42 C12.5312816,0.18 12.3153905,0 12.0583772,0 L7.94616426,0 C7.68915096,0 7.47325978,0.18 7.44241818,0.42 L7.05175796,3.07 C6.42464549,3.32 5.84893569,3.66 5.31434801,4.05 L2.75449549,3.05 C2.51804325,2.96 2.25074941,3.05 2.12738302,3.27 L0.0712765788,6.73 C-0.0623703401,6.95 -0.000687146732,7.22 0.194642966,7.37 L2.36383526,9.02 C2.32271314,9.34 2.29187154,9.67 2.29187154,10 C2.29187154,10.33 2.32271314,10.66 2.36383526,10.98 L0.194642966,12.63 C-0.000687146732,12.78 -0.0520898079,13.05 0.0712765788,13.27 L2.12738302,16.73 C2.25074941,16.95 2.52832378,17.03 2.75449549,16.95 L5.31434801,15.95 C5.84893569,16.35 6.42464549,16.68 7.05175796,16.93 L7.44241818,19.58 C7.47325978,19.82 7.68915096,20 7.94616426,20 L12.0583772,20 C12.3153905,20 12.5312816,19.82 12.5621232,19.58 L12.9527835,16.93 C13.5798959,16.68 14.1556057,16.34 14.6901934,15.95 L17.2500459,16.95 C17.4864982,17.04 17.753792,16.95 17.8771584,16.73 L19.9332648,13.27 C20.0566312,13.05 20.0052286,12.78 19.8098984,12.63 L17.6407061,10.98 Z" id="Icon"></path>
            </g>
        </g>
    </g>
</svg>