<?xml version="1.0" encoding="UTF-8" standalone="no"?>
<svg
   xmlns:dc="http://purl.org/dc/elements/1.1/"
   xmlns:cc="http://creativecommons.org/ns#"
   xmlns:rdf="http://www.w3.org/1999/02/22-rdf-syntax-ns#"
   xmlns:svg="http://www.w3.org/2000/svg"
   xmlns="http://www.w3.org/2000/svg"
   viewBox="0 0 609.35999 263.25333"
   height="263.25333"
   width="609.35999"
   xml:space="preserve"
   id="svg2"
   version="1.1"><metadata
     id="metadata8"><rdf:RDF><cc:Work
         rdf:about=""><dc:format>image/svg+xml</dc:format><dc:type
           rdf:resource="http://purl.org/dc/dcmitype/StillImage" /></cc:Work></rdf:RDF></metadata><defs
     id="defs6" /><g
     transform="matrix(1.3333333,0,0,-1.3333333,0,263.25333)"
     id="g10"><g
       transform="scale(0.1)"
       id="g12"><path
         id="path14"
         style="fill:#040606;fill-opacity:1;fill-rule:nonzero;stroke:none"
         d="M 4570.21,0 H 0.00390625 V 1974.42 H 4570.21 V 0" /><path
         id="path16"
         style="fill:#ffffff;fill-opacity:1;fill-rule:nonzero;stroke:none"
         d="m 1118.91,653.641 v 0.558 c 0,55.211 43.01,100.442 101.82,100.442 34.97,0 56.05,-9.442 76.3,-26.629 l -26.9,-32.473 c -14.99,12.492 -28.31,19.699 -50.78,19.699 -31.08,0 -55.77,-27.468 -55.77,-60.476 v -0.563 c 0,-35.519 24.41,-61.597 58.82,-61.597 15.54,0 29.41,3.878 40.23,11.66 V 632 h -43.01 v 36.91 h 84.36 v -84.351 c -19.98,-16.93 -47.45,-30.797 -82.96,-30.797 -60.49,0 -102.11,42.449 -102.11,99.879" /><path
         id="path18"
         style="fill:#ffffff;fill-opacity:1;fill-rule:nonzero;stroke:none"
         d="m 1567.54,638.391 -25.81,62.98 -25.8,-62.98 z m -44.95,114.3 h 39.39 l 83.25,-195.601 h -44.67 l -17.75,43.551 h -82.14 l -17.76,-43.551 h -43.56 l 83.24,195.601" /><path
         id="path20"
         style="fill:#ffffff;fill-opacity:1;fill-rule:nonzero;stroke:none"
         d="m 1872.16,656.969 c 20.81,0 32.74,11.109 32.74,27.472 V 685 c 0,18.309 -12.76,27.738 -33.57,27.738 h -42.46 v -55.769 z m -86.01,94.34 h 88.78 c 24.7,0 43.84,-6.938 56.61,-19.7 10.82,-10.82 16.65,-26.078 16.65,-44.39 v -0.559 c 0,-31.351 -16.93,-51.058 -41.63,-60.211 l 47.46,-69.359 h -49.95 l -41.63,62.148 h -33.57 V 557.09 h -42.72 v 194.219" /><path
         id="path22"
         style="fill:#ffffff;fill-opacity:1;fill-rule:nonzero;stroke:none"
         d="m 2140.44,712.738 v -117.09 h 33.02 c 34.96,0 58.54,23.59 58.54,57.993 v 0.558 c 0,34.403 -23.58,58.539 -58.54,58.539 z m -42.73,38.571 h 75.75 c 61.04,0 103.21,-41.899 103.21,-96.547 v -0.563 c 0,-54.66 -42.17,-97.109 -103.21,-97.109 h -75.75 v 194.219" /><path
         id="path24"
         style="fill:#ffffff;fill-opacity:1;fill-rule:nonzero;stroke:none"
         d="m 2425.64,751.309 h 146.5 V 713.301 H 2468.1 v -39.403 h 91.56 v -38.007 h -91.56 v -40.789 h 105.43 V 557.09 h -147.89 v 194.219" /><path
         id="path26"
         style="fill:#ffffff;fill-opacity:1;fill-rule:nonzero;stroke:none"
         d="m 2722.5,751.309 h 39.41 l 91,-119.579 v 119.579 h 42.17 V 557.09 h -36.34 l -94.06,123.469 V 557.09 h -42.18 v 194.219" /><path
         id="path28"
         style="fill:#ffffff;fill-opacity:1;fill-rule:nonzero;stroke:none"
         d="m 3054.59,751.309 h 42.74 V 557.09 h -42.74 v 194.219" /><path
         id="path30"
         style="fill:#ffffff;fill-opacity:1;fill-rule:nonzero;stroke:none"
         d="m 3368.39,638.391 -25.81,62.98 -25.8,-62.98 z m -44.95,114.3 h 39.4 l 83.24,-195.601 h -44.67 l -17.76,43.551 h -82.13 l -17.76,-43.551 h -43.55 l 83.23,195.601" /><path
         id="path32"
         style="fill:#ffffff;fill-opacity:1;fill-rule:nonzero;stroke:none"
         d="m 1158.74,472.629 h -22.58 v 4.441 h 49.97 v -4.441 h -22.57 v -60.32 h -4.82 v 60.32" /><path
         id="path34"
         style="fill:#ffffff;fill-opacity:1;fill-rule:nonzero;stroke:none"
         d="m 1344.06,477.07 h 46.08 v -4.441 h -41.26 v -25.438 h 37.1 v -4.453 h -37.1 V 416.75 h 41.72 v -4.441 h -46.54 v 64.761" /><path
         id="path36"
         style="fill:#ffffff;fill-opacity:1;fill-rule:nonzero;stroke:none"
         d="m 1546.51,444.5 v 0.191 c 0,18.321 13.68,33.489 32.37,33.489 11.56,0 18.51,-4.25 25.17,-10.36 l -3.42,-3.511 c -5.65,5.453 -12.12,9.531 -21.84,9.531 -15.55,0 -27.29,-12.68 -27.29,-28.969 v -0.18 c 0,-16.371 11.93,-29.14 27.38,-29.14 9.35,0 15.73,3.609 22.29,10.078 l 3.25,-3.141 c -6.85,-6.758 -14.25,-11.289 -25.73,-11.289 -18.5,0 -32.18,14.711 -32.18,33.301" /><path
         id="path38"
         style="fill:#ffffff;fill-opacity:1;fill-rule:nonzero;stroke:none"
         d="m 1760.97,477.07 h 4.8 v -29.968 h 41.46 v 29.968 h 4.8 v -64.761 h -4.8 v 30.351 h -41.46 v -30.351 h -4.8 v 64.761" /><path
         id="path40"
         style="fill:#ffffff;fill-opacity:1;fill-rule:nonzero;stroke:none"
         d="m 1974.59,477.07 h 4.53 l 44.69,-56.34 v 56.34 h 4.63 v -64.761 h -3.6 l -45.62,57.543 v -57.543 h -4.63 v 64.761" /><path
         id="path42"
         style="fill:#ffffff;fill-opacity:1;fill-rule:nonzero;stroke:none"
         d="m 2248.26,444.5 v 0.191 c 0,16 -11.66,29.149 -27.66,29.149 -16.01,0 -27.47,-12.961 -27.47,-28.969 v -0.18 c 0,-16.011 11.65,-29.14 27.65,-29.14 16.01,0 27.48,12.961 27.48,28.949 z m -60.13,0 v 0.191 c 0,17.668 13.04,33.489 32.65,33.489 19.61,0 32.48,-15.629 32.48,-33.309 v -0.18 c 0,-17.671 -13.05,-33.492 -32.66,-33.492 -19.61,0 -32.47,15.641 -32.47,33.301" /><path
         id="path44"
         style="fill:#ffffff;fill-opacity:1;fill-rule:nonzero;stroke:none"
         d="m 2412.95,477.07 h 4.82 v -60.32 h 38.01 v -4.441 h -42.83 v 64.761" /><path
         id="path46"
         style="fill:#ffffff;fill-opacity:1;fill-rule:nonzero;stroke:none"
         d="m 2667.1,444.5 v 0.191 c 0,16 -11.65,29.149 -27.65,29.149 -16.01,0 -27.48,-12.961 -27.48,-28.969 v -0.18 c 0,-16.011 11.66,-29.14 27.65,-29.14 16.02,0 27.48,12.961 27.48,28.949 z m -60.12,0 v 0.191 c 0,17.668 13.03,33.489 32.64,33.489 19.62,0 32.48,-15.629 32.48,-33.309 v -0.18 c 0,-17.671 -13.04,-33.492 -32.65,-33.492 -19.62,0 -32.47,15.641 -32.47,33.301" /><path
         id="path48"
         style="fill:#ffffff;fill-opacity:1;fill-rule:nonzero;stroke:none"
         d="m 2828.93,444.5 v 0.191 c 0,17.489 12.66,33.489 32.01,33.489 10.54,0 17.2,-3.141 23.68,-8.508 l -3.15,-3.613 c -5.08,4.441 -11.01,7.781 -20.81,7.781 -15.74,0 -26.74,-13.328 -26.74,-28.969 v -0.18 c 0,-16.742 10.46,-29.23 27.75,-29.23 8.24,0 15.92,3.418 20.64,7.398 v 18.59 h -21.65 v 4.449 h 26.27 v -24.976 c -5.82,-5.192 -14.89,-9.723 -25.44,-9.723 -20.44,0 -32.56,15.082 -32.56,33.301" /><path
         id="path50"
         style="fill:#ffffff;fill-opacity:1;fill-rule:nonzero;stroke:none"
         d="m 3048.28,477.07 h 4.82 v -64.761 h -4.82 v 64.761" /><path
         id="path52"
         style="fill:#ffffff;fill-opacity:1;fill-rule:nonzero;stroke:none"
         d="m 3216.32,477.07 h 46.08 v -4.441 h -41.27 v -25.438 h 37.1 v -4.453 h -37.1 V 416.75 h 41.72 v -4.441 h -46.53 v 64.761" /><path
         id="path54"
         style="fill:#ffffff;fill-opacity:1;fill-rule:nonzero;stroke:none"
         d="m 3417.45,421.75 3.15,3.602 c 7.13,-6.563 13.7,-9.622 23.22,-9.622 9.72,0 16.39,5.461 16.39,12.86 v 0.191 c 0,6.84 -3.62,10.821 -18.33,13.778 -15.54,3.152 -21.83,8.429 -21.83,18.23 v 0.191 c 0,9.61 8.79,17.02 20.81,17.02 9.45,0 15.64,-2.59 22.21,-7.859 l -3.05,-3.801 c -6.11,5.269 -12.21,7.308 -19.34,7.308 -9.53,0 -15.82,-5.457 -15.82,-12.218 v -0.18 c 0,-6.852 3.51,-11.012 18.87,-14.148 14.99,-3.063 21.28,-8.422 21.28,-17.864 v -0.187 c 0,-10.449 -8.97,-17.66 -21.46,-17.66 -10.36,0 -18.32,3.41 -26.1,10.359" /><path
         id="path56"
         style="fill:#ffffff;fill-opacity:1;fill-rule:nonzero;stroke:none"
         d="m 2294.44,1563.22 -270.6,-154.44 v -308.9 L 2294.44,946.879 2560.08,1097 v 310.33 l -86.61,51.97 -241.06,-141.46 77.95,-51.96 163.11,90.94 v -209.3 l -179.03,-98.88 -183.99,101.76 v 210.74 l 268.48,152.29 -84.49,49.79" /></g></g></svg>